# xmcd
#
# Track frame offsets:
#	150
#	21935
#	40610
#	59175
#	73932
#	89595
#	102312
#	115422
#	126847
#	139625
#	152305
#	163272
#	175572
#	192432
#	208965
#	219837
#	236955
#	253982
#
# Disc length: 3611 seconds
#
# Revision: 0
# Processed by: cddbd v1.5.1PL0 Copyright (c) Steve Scherf et al.
# Submitted via: audiograbber 1.83.01
#
DISCID=130e1912
DTITLE=Jonny Hill - Meine Lieder CD1
DYEAR=1900
DGENRE=
TTITLE0=Ruf Teddybär Eins-Vier
TTITLE1=Sylvia´s Mutter 
TTITLE2=Wieder mal auf Tournee
TTITLE3=Nur noch einmal nach Haus
TTITLE4=Lucille
TTITLE5=Kann Liebe alles verzeihn
TTITLE6=Ich hab´ dich heute Nacht so sehr vermisst
TTITLE7=Ich fahr´ meine Tour
TTITLE8=Green Green Grass Of Home
TTITLE9=Freunde
TTITLE10=Die Arbeit hört nie auf
TTITLE11=Der Zug, der heimwärts geht
TTITLE12=Der letzte Drink
TTITLE13=Dann gehst du alleine nach Hause
TTITLE14=Adios Amigo
TTITLE15=Wo der Mond versinkt
TTITLE16=Rosen für Mama
TTITLE17=Addio, Santa Lucia
EXTD=
EXTT0=
EXTT1=
EXTT2=
EXTT3=
EXTT4=
EXTT5=
EXTT6=
EXTT7=
EXTT8=
EXTT9=
EXTT10=
EXTT11=
EXTT12=
EXTT13=
EXTT14=
EXTT15=
EXTT16=
EXTT17=
PLAYORDER=
